Coordinates
version=1
nRows=9
nColumns=63
inDegrees=yes

Units are S.I. units (second, meters, Newtons, ...)
If the header above contains a line with 'inDegrees', this indicates whether rotational values are in degrees (yes) or radians (no).

endheader
time	pelvis_tilt	pelvis_list	pelvis_rotation	pelvis_tx	pelvis_ty	pelvis_tz	hip_flexion_r	hip_adduction_r	hip_rotation_r	knee_angle_r	knee_angle_r_beta	ankle_angle_r	subtalar_angle_r	mtp_angle_r	hip_flexion_l	hip_adduction_l	hip_rotation_l	knee_angle_l	knee_angle_l_beta	ankle_angle_l	subtalar_angle_l	mtp_angle_l	L5_S1_Flex_Ext	L5_S1_Lat_Bending	L5_S1_axial_rotation	L4_L5_Flex_Ext	L4_L5_Lat_Bending	L4_L5_axial_rotation	L3_L4_Flex_Ext	L3_L4_Lat_Bending	L3_L4_axial_rotation	L2_L3_Flex_Ext	L2_L3_Lat_Bending	L2_L3_axial_rotation	L1_L2_Flex_Ext	L1_L2_Lat_Bending	L1_L2_axial_rotation	L1_T12_Flex_Ext	L1_T12_Lat_Bending	L1_T12_axial_rotation	Abs_r3	Abs_r2	Abs_r1	Abs_t1	Abs_t2	neck_flexion	neck_bending	neck_rotation	arm_flex_r	arm_add_r	arm_rot_r	elbow_flex_r	pro_sup_r	wrist_flex_r	wrist_dev_r	arm_flex_l	arm_add_l	arm_rot_l	elbow_flex_l	pro_sup_l	wrist_flex_l	wrist_dev_l
      5.56666670	      5.98688012	     -6.56277797	   -185.77713534	      0.67668682	      0.81095987	      0.23952983	     23.98832620	    -13.86842360	     -2.10777354	     70.52769575	      1.23094050	     31.70692520	     -2.70649668	      0.00000000	     13.25875558	     14.16787263	      4.20192312	     20.09398430	      0.35070619	     22.68577407	     -8.13830147	      0.00000000	     -0.16965412	     -1.16046310	      0.43135940	     -0.31506467	     -1.54341593	      0.45831936	     -0.27872475	     -2.82154999	      0.45831936	     -0.19389769	     -2.82154999	      0.37743947	     -0.15754082	     -2.36641636	      0.35047951	     -0.09694036	     -1.79755735	      0.32351955	     -1.21182242	    -13.12739072	      2.39909156	      0.00000000	      0.00000000	      0.00000000	      0.00000000	      0.00000000	     -7.85947206	     -2.49248473	     -4.89873819	     32.73964394	     74.89406475	      0.00000000	      4.99999100	      1.05985292	    -13.04796554	      9.11740012	     36.73484545	     71.56698572	      0.00000000	      4.99999100
      5.60000000	      5.54425841	     -6.06956858	   -185.46865568	      0.67518384	      0.81347086	      0.24035647	     29.23221975	    -13.54796867	     -1.28000867	     72.84563934	      1.27139625	     29.68501827	     -3.71751448	      0.00000000	      9.32428992	     13.90486891	      5.24100452	     17.09978258	      0.29844751	     22.80674532	     -7.77157966	      0.00000000	     -0.16516220	     -1.13886152	      0.19262759	     -0.30672273	     -1.51468582	      0.20466681	     -0.27134499	     -2.76902789	      0.20466681	     -0.18876388	     -2.76902789	      0.16854914	     -0.15336962	     -2.32236641	      0.15650991	     -0.09437368	     -1.76409649	      0.14447069	     -1.17973711	    -12.88302926	      1.07133685	      0.00000000	      0.00000000	      0.00000000	      0.00000000	      0.00000000	     -8.83142455	     -2.54523337	     -4.95506915	     31.60970158	     74.55401268	      0.00000000	      4.99999126	      2.36806565	    -13.87295251	      9.20584836	     38.93993037	     71.52903672	      0.00000000	      4.99999126
      5.63333330	      5.29553886	     -5.54777690	   -184.96744194	      0.67407996	      0.81538849	      0.24110717	     33.57322324	    -12.77324641	     -0.95719735	     72.84186803	      1.27133043	     27.98612654	     -4.51157262	      0.00000000	      6.02602164	     13.48512657	      6.66811276	     14.31806697	      0.24989741	     22.49395879	     -7.86586556	      0.00000000	     -0.14334333	     -1.11249517	     -0.31338428	     -0.26620290	     -1.47961857	     -0.33297080	     -0.23549876	     -2.70492075	     -0.33297080	     -0.16382709	     -2.70492075	     -0.27421125	     -0.13310862	     -2.26860015	     -0.25462473	     -0.08190638	     -1.72325502	     -0.23503821	     -1.02388708	    -12.58476785	     -1.74294937	      0.00000000	      0.00000000	      0.00000000	      0.00000000	      0.00000000	     -8.61998083	     -2.96654667	     -2.58683136	     29.67221210	     71.75456234	      0.00000000	      4.99999421	      1.68849894	    -14.82335521	      6.39170760	     43.75935531	     70.70328371	      0.00000000	      4.99999421
      5.66666670	      5.17609306	     -5.02602539	   -184.50099201	      0.67352427	      0.81717841	      0.24170029	     37.01186158	    -11.54069963	     -0.86159589	     70.73379428	      1.23453760	     26.47025194	     -5.42338387	      0.00000000	      3.32830875	     12.88359849	      7.80566416	     11.72759834	      0.20468520	     22.14097119	     -7.58289761	      0.00000000	     -0.12366659	     -1.07272794	     -0.51207504	     -0.22966122	     -1.42672816	     -0.54407973	     -0.20317184	     -2.60823072	     -0.54407973	     -0.14133854	     -2.60823072	     -0.44806566	     -0.11483679	     -2.18750682	     -0.41606097	     -0.07066309	     -1.66165558	     -0.38405628	     -0.88333808	    -12.13491304	     -2.84800775	      0.00000000	      0.00000000	      0.00000000	      0.00000000	      0.00000000	     -9.53866402	     -3.09465871	     -2.76742778	     29.40095244	     71.46977762	      0.00000000	      4.99999441	      2.97241028	    -15.44603046	      6.22242382	     45.19482114	     70.77406319	      0.00000000	      4.99999441
      5.70000000	      5.27329557	     -4.53918267	   -184.07981815	      0.67370222	      0.81887325	      0.24219528	     39.77179088	     -9.98619881	     -0.86019913	     66.78954427	      1.16569745	     25.14431029	     -6.28163232	      0.00000000	      1.31441439	     12.23496114	      8.89363329	      9.43261153	      0.16463013	     21.82323446	     -7.50751557	      0.00000000	     -0.09878827	     -1.02427080	     -0.69136882	     -0.18345970	     -1.36228016	     -0.73457937	     -0.16229925	     -2.49041202	     -0.73457937	     -0.11290511	     -2.49041202	     -0.60494772	     -0.09173479	     -2.08869301	     -0.56173717	     -0.05644762	     -1.58659546	     -0.51852661	     -0.70563473	    -11.58675611	     -3.84518596	      0.00000000	      0.00000000	      0.00000000	      0.00000000	      0.00000000	    -10.23965959	     -3.18673918	     -3.01858890	     29.39798854	     71.09543286	      0.00000000	      4.99999461	      3.91576256	    -15.96301130	      5.89545267	     46.69613434	     70.74616227	      0.00000000	      4.99999461
      5.73333330	      5.65421749	     -4.16169168	   -183.65983581	      0.67483145	      0.82021804	      0.24250977	     42.07421283	     -8.24491684	     -0.71531980	     61.26811503	      1.06933033	     23.56664816	     -7.40785855	      0.00000000	     -0.01234717	     11.68390865	     10.19963667	      7.57050681	      0.13213027	     21.68775738	     -7.89311483	      0.00000000	     -0.06405544	     -0.97619283	     -0.89848187	     -0.11895735	     -1.29833647	     -0.95463699	     -0.10523668	     -2.37351525	     -0.95463699	     -0.07320896	     -2.37351525	     -0.78617164	     -0.05948188	     -1.99065242	     -0.73001652	     -0.03660128	     -1.51212270	     -0.67386140	     -0.45754158	    -11.04288855	     -4.99708661	      0.00000000	      0.00000000	      0.00000000	      0.00000000	      0.00000000	    -10.71168955	     -3.15785782	     -3.47673607	     29.73496087	     70.42929548	      0.00000000	      4.99999500	      4.20154734	    -16.30141967	      4.80797382	     48.50879023	     70.74532016	      0.00000000	      4.99999500
      5.76666670	      6.12862950	     -3.66578681	   -183.43149630	      0.67666294	      0.82149202	      0.24246628	     43.53638797	     -6.18889396	     -0.37535735	     54.18584312	      0.94572137	     21.64697871	     -8.44763873	      0.00000000	     -1.00693761	     10.99921130	     10.98617224	      6.20195465	      0.10824453	     22.22213730	     -7.77655828	      0.00000000	     -0.02845315	     -0.90628222	     -1.04749463	     -0.05284034	     -1.20535535	     -1.11296304	     -0.04674567	     -2.20353459	     -1.11296304	     -0.03251910	     -2.20353459	     -0.91655780	     -0.02642159	     -1.84809071	     -0.85108938	     -0.01625813	     -1.40383116	     -0.78562097	     -0.20323798	    -10.25204575	     -5.82585087	      0.00000000	      0.00000000	      0.00000000	      0.00000000	      0.00000000	    -10.99007843	     -3.21411590	     -3.70629274	     30.10216772	     69.97027805	      0.00000000	      4.99999534	      4.46987542	    -16.31401941	      3.83018753	     49.51348167	     70.79817512	      0.00000000	      4.99999534
      5.80000000	      6.65512152	     -3.02866017	   -183.36290334	      0.67885565	      0.82229510	      0.24196251	     44.01603744	     -3.91620101	      0.26538731	     45.81631244	      0.79964550	     18.92678982	     -9.76948899	      0.00000000	     -1.85017508	     10.19736902	     11.33073407	      5.45289695	      0.09517101	     23.28411429	     -7.48872277	      0.00000000	     -0.00703648	     -0.81012260	     -1.15585600	     -0.01306745	     -1.07746306	     -1.22809700	     -0.01156024	     -1.96973209	     -1.22809700	     -0.00804200	     -1.96973209	     -1.01137400	     -0.00653408	     -1.65200201	     -0.93913300	     -0.00402065	     -1.25487991	     -0.86689200	     -0.05026089	     -9.16426888	     -6.42852431	      0.00000000	      0.00000000	      0.00000000	      0.00000000	      0.00000000	    -11.04706727	     -3.32788189	     -3.83639614	     30.51423747	     69.66250896	      0.00000000	      4.99999565	      4.59961502	    -16.05876467	      2.97692815	     49.94538918	     70.92162803	      0.00000000	      4.99999565
      5.83333330	      7.06180532	     -2.18519877	   -183.34912510	      0.68047982	      0.82244706	      0.24113788	     43.26713480	     -1.57443825	      1.23223873	     36.83180969	      0.64283635	     15.30091241	    -11.45836965	      0.00000000	     -2.93572697	      9.23741907	     11.28099539	      5.27800918	      0.09211864	     24.75212552	     -6.95346338	      0.00000000	      0.00105465	     -0.68647933	     -1.24640167	      0.00195860	     -0.91301751	     -1.32430177	      0.00173269	     -1.66910584	     -1.32430177	      0.00120536	     -1.66910584	     -1.09060146	      0.00097935	     -1.39986865	     -1.01270135	      0.00060263	     -1.06335648	     -0.93480125	      0.00753329	     -7.76559145	     -6.93211215	      0.00000000	      0.00000000	      0.00000000	      0.00000000	      0.00000000	    -10.97277957	     -3.57625664	     -3.89296162	     30.92052665	     69.53191997	      0.00000000	      4.99999593	      4.56456947	    -15.49492806	      2.28757694	     49.71064741	     71.12195389	      0.00000000	      4.99999593
